HIERARCHY
ROOT Hips
{
	OFFSET 0.000000 0.000000 0.000000
	CHANNELS 6 Xposition Yposition Zposition Xrotation Yrotation Zrotation
	JOINT LeftUpLeg_virtual
	{
		OFFSET 0.000000 0.000000 0.000000
		CHANNELS 3 Xrotation Yrotation Zrotation
		JOINT LeftUpLeg
		{
			OFFSET 15.427100 -6.655098 0.678600
			CHANNELS 3 Xrotation Yrotation Zrotation
			JOINT LeftLeg
			{
				OFFSET 4.081073 -39.591068 13.024000
				CHANNELS 3 Xrotation Yrotation Zrotation
				JOINT LeftFoot
				{
					OFFSET -4.081074 -37.707932 -15.979700
					CHANNELS 3 Xrotation Yrotation Zrotation
					JOINT LeftToeBase
					{
						OFFSET 5.346399 -15.068900 20.645000
						CHANNELS 3 Xrotation Yrotation Zrotation
						JOINT LeftToe_End
						{
							OFFSET 2.754700 0.931300 11.300900
							CHANNELS 3 Xrotation Yrotation Zrotation
							End Site
							{
								OFFSET 0 0 0
							}
						}
					}
				}
			}
		}
	}
	JOINT RightUpLeg_virtual
	{
		OFFSET 0.000000 0.000000 0.000000
		CHANNELS 3 Xrotation Yrotation Zrotation
		JOINT RightUpLeg
		{
			OFFSET -15.569500 -6.655098 0.678600
			CHANNELS 3 Xrotation Yrotation Zrotation
			JOINT RightLeg
			{
				OFFSET -4.081825 -39.591045 13.023800
				CHANNELS 3 Xrotation Yrotation Zrotation
				JOINT RightFoot
				{
					OFFSET 4.081824 -37.707954 -15.979600
					CHANNELS 3 Xrotation Yrotation Zrotation
					JOINT RightToeBase
					{
						OFFSET -5.346400 -15.068900 20.645000
						CHANNELS 3 Xrotation Yrotation Zrotation
						JOINT RightToe_End
						{
							OFFSET -2.754700 0.931300 11.300900
							CHANNELS 3 Xrotation Yrotation Zrotation
							End Site
							{
								OFFSET 0 0 0
							}
						}
					}
				}
			}
		}
	}
	JOINT Spine_virtual
	{
		OFFSET 0.000000 0.000000 0.000000
		CHANNELS 3 Xrotation Yrotation Zrotation
		JOINT Spine
		{
			OFFSET -0.279200 12.230698 -2.892100
			CHANNELS 3 Xrotation Yrotation Zrotation
			JOINT Spine1
			{
				OFFSET -0.232667 10.192268 -1.242267
				CHANNELS 3 Xrotation Yrotation Zrotation
				JOINT Spine1_split
				{
					OFFSET -0.232667 10.192268 -1.242267
					CHANNELS 3 Xrotation Yrotation Zrotation
					JOINT Spine2
					{
						OFFSET -0.232667 10.192268 -1.242267
						CHANNELS 3 Xrotation Yrotation Zrotation
						JOINT Neck_virtual
						{
							OFFSET 0.000000 0.000000 0.000000
							CHANNELS 3 Xrotation Yrotation Zrotation
							JOINT Neck
							{
								OFFSET -0.418800 17.814194 8.416900
								CHANNELS 3 Xrotation Yrotation Zrotation
								JOINT Head
								{
									OFFSET 0.000000 7.031097 3.806800
									CHANNELS 3 Xrotation Yrotation Zrotation
									JOINT HeadTop_End
									{
										OFFSET 0.000000 24.646606 12.978600
										CHANNELS 3 Xrotation Yrotation Zrotation
										End Site
										{
											OFFSET 0 0 0
										}
									}
								}
							}
						}
						JOINT LeftShoulder_virtual
						{
							OFFSET 0.000000 0.000000 0.000000
							CHANNELS 3 Xrotation Yrotation Zrotation
							JOINT LeftShoulder
							{
								OFFSET 8.476499 7.247704 -3.868750
								CHANNELS 3 Xrotation Yrotation Zrotation
								JOINT LeftShoulder_split
								{
									OFFSET 8.476499 7.247704 -3.868750
									CHANNELS 3 Xrotation Yrotation Zrotation
									JOINT LeftArm
									{
										OFFSET 9.308998 -2.777710 0.208600
										CHANNELS 3 Xrotation Yrotation Zrotation
										JOINT LeftForeArm
										{
											OFFSET 29.972298 0.000000 0.000000
											CHANNELS 3 Xrotation Yrotation Zrotation
											JOINT LeftHand
											{
												OFFSET 26.026505 0.000000 0.000000
												CHANNELS 3 Xrotation Yrotation Zrotation
												End Site
												{
													OFFSET 0 0 0
												}
											}
										}
									}
								}
							}
						}
						JOINT RightShoulder_virtual
						{
							OFFSET 0.000000 0.000000 0.000000
							CHANNELS 3 Xrotation Yrotation Zrotation
							JOINT RightShoulder
							{
								OFFSET -7.570500 7.247704 -3.868750
								CHANNELS 3 Xrotation Yrotation Zrotation
								JOINT RightShoulder_split
								{
									OFFSET -7.570500 7.247704 -3.868750
									CHANNELS 3 Xrotation Yrotation Zrotation
									JOINT RightArm
									{
										OFFSET -9.308998 -2.777710 0.208500
										CHANNELS 3 Xrotation Yrotation Zrotation
										JOINT RightForeArm
										{
											OFFSET -29.972300 0.000000 0.000000
											CHANNELS 3 Xrotation Yrotation Zrotation
											JOINT RightHand
											{
												OFFSET -26.026505 0.000000 0.000000
												CHANNELS 3 Xrotation Yrotation Zrotation
												End Site
												{
													OFFSET 0 0 0
												}
											}
										}
									}
								}
							}
						}
					}
				}
			}
		}
	}
}
MOTION
Frames: 4
Frame Time: 0.03333333
-3.968167 80.213043 -1.807972 0.000000 0.000000 0.000000 -4.215299 -8.226255 5.828072 -61.831052 6.841962 6.311008 51.143558 2.045525 -5.906979 8.413979 -0.859605 3.468079 -1.633450 -0.178876 2.372783 0.000000 0.000000 0.000000 -4.096792 -9.897190 5.515072 -14.162431 -9.157380 -7.227268 47.502316 12.111549 7.078286 -29.849320 1.714160 -7.745006 -3.851723 0.446302 0.287589 0.000000 0.000000 0.000000 -3.234058 -7.524128 4.586133 13.458370 0.580298 -4.242850 2.424576 0.216336 -0.929835 0.530790 -0.836500 0.324488 0.000000 0.000000 0.000000 2.846541 0.184455 -0.777538 1.924526 -0.490049 0.819203 22.841092 5.465997 -0.338148 0.000000 0.000000 0.000000 2.671737 0.270135 -0.799932 1.522750 1.932268 -9.202886 0.588895 -2.139200 -0.768208 14.269119 -25.698616 -53.774086 0.561677 -33.218424 0.207135 0.000000 0.000000 0.000000 2.699207 -0.130206 -1.035150 -0.032827 5.927831 18.547537 -0.080281 3.445900 -1.854916 14.468164 20.140857 48.395251 1.280368 40.705366 -0.327250 0.000000 0.000000 0.000000 
-4.092808 80.516830 -2.576359 0.000000 0.000000 0.000000 -3.253660 -8.157138 6.152111 -61.771357 6.423550 5.980152 44.288545 2.427183 -5.530831 10.573707 0.857209 2.544568 2.811448 0.308046 0.304455 0.000000 0.000000 0.000000 -3.628552 -9.224389 5.876403 -14.499079 -8.679047 -6.695554 47.115646 11.213896 6.456532 -29.966038 0.835229 -8.744496 -3.411283 0.479567 0.507106 0.000000 0.000000 0.000000 -2.629869 -6.711537 5.139786 13.732600 0.506162 -4.623516 2.624035 0.255971 -0.993698 0.855497 -0.940176 0.653110 0.000000 0.000000 0.000000 2.967675 0.201594 -0.844541 2.206047 -0.562503 0.761241 22.649420 5.363715 -0.209052 0.000000 0.000000 0.000000 2.792535 0.332180 -0.884315 1.659025 1.973527 -9.287269 0.706044 -2.344087 -0.579825 15.003866 -26.739125 -53.974726 0.303256 -33.277802 -0.134645 0.000000 0.000000 0.000000 2.840929 -0.103564 -1.135747 -0.099052 6.666858 18.736143 -0.007307 3.555357 -1.546584 14.288499 19.468742 47.975713 1.050376 42.473388 -0.183760 0.000000 0.000000 0.000000 
-4.203194 80.787323 -3.460224 0.000000 0.000000 0.000000 -2.429917 -7.704060 6.133517 -61.914763 6.056561 6.380229 39.828879 2.111804 -4.972571 11.965286 1.983199 1.352762 5.455517 0.656889 -1.373930 0.000000 0.000000 0.000000 -2.984985 -8.209208 5.905316 -15.204249 -8.520073 -5.963124 46.592863 10.253823 6.051812 -29.712624 0.170300 -9.777045 -3.000984 0.529424 0.709787 0.000000 0.000000 0.000000 -1.958144 -5.805573 5.390744 13.969206 0.361120 -4.719939 2.809837 0.239086 -1.024938 1.183494 -0.971454 0.814003 0.000000 0.000000 0.000000 3.045789 0.156569 -0.887395 2.415373 -0.615665 0.799487 22.323534 5.270968 -0.003187 0.000000 0.000000 0.000000 2.868489 0.322413 -0.942999 1.782380 1.880740 -9.280310 0.881108 -2.556680 -0.476117 15.361375 -27.546139 -54.203579 -0.014249 -33.289843 -0.563031 0.000000 0.000000 0.000000 2.939087 -0.128916 -1.189144 -0.174697 7.285854 19.013192 0.231628 3.559249 -1.379062 13.730079 18.807107 47.469022 0.830831 44.336930 -0.022125 0.000000 0.000000 0.000000 
-4.331528 81.151863 -4.346901 0.000000 0.000000 0.000000 -1.519906 -6.648477 5.934736 -61.631092 6.193651 6.913890 37.970132 1.305975 -4.355134 10.908900 2.181605 1.303429 4.740234 0.731900 -1.689118 0.000000 0.000000 0.000000 -2.187290 -7.078581 5.750385 -16.408788 -8.715039 -5.285630 45.809228 9.493619 5.855944 -28.628905 -0.116730 -10.307352 -2.794943 0.555205 0.842588 0.000000 0.000000 0.000000 -0.957025 -4.786532 5.449478 14.067886 0.092209 -4.544175 2.952294 0.152453 -1.028319 1.327611 -1.169981 0.730473 0.000000 0.000000 0.000000 3.099196 0.035118 -0.885995 2.483761 -0.627183 0.895251 21.916303 5.201827 0.219133 0.000000 0.000000 0.000000 2.906965 0.221690 -0.957937 1.882144 1.610637 -9.148726 1.195443 -2.755613 -0.358060 15.361980 -28.186941 -54.410134 -0.260863 -33.250433 -0.956513 0.000000 0.000000 0.000000 2.995348 -0.215512 -1.173987 -0.249428 7.732444 19.408319 0.528760 3.434912 -1.324408 12.997125 18.300679 46.768747 0.714617 45.709989 0.085044 0.000000 0.000000 0.000000 
